<?xml version="1.0" encoding="UTF-8"?>
<svg id="Layer_1" data-name="Layer 1" xmlns="http://www.w3.org/2000/svg" viewBox="0 0 443.22 443.22">
  <!-- <path fill="#313b96" class="cls-1" d="M198,0c109.35,0,198,88.65,198,198s-88.65,198-198,198c-91.08,0-167.31-60.98-190.87-143.95l75.83,31.28c5.36,26.15,28.35,44.93,55.04,44.95,30.89,0,56.03-25.15,56.03-56.03v-2.57l67.32-48.11h1.58c41.18,0,74.65-33.46,74.65-74.65s-33.46-74.65-74.65-74.65-74.84,33.46-74.84,74.65v.99l-46.93,68.51-3.17-.2c-11.68,0-22.57,3.56-31.48,9.7L0,182.16C8.51,80.19,93.65,0,198,0M124.34,300.37c15.84,6.53,34.06-.79,40.59-16.63,6.53-15.84-.99-33.86-16.43-40.39l-25.34-10.49c9.7-3.56,20.59-3.76,30.89.59,10.49,4.16,18.61,12.28,22.77,22.77,4.36,10.3,4.36,21.78,0,32.08-8.51,21.38-33.66,31.68-55.04,22.77-9.9-4.16-17.42-11.68-21.58-20.59l24.16,9.9ZM312.84,146.92c0,27.52-22.37,49.9-49.9,49.9-27.48-.11-49.7-22.42-49.7-49.9-.11-27.34,21.96-49.59,49.3-49.7.13,0,.26,0,.4,0,27.48,0,49.79,22.22,49.9,49.7M225.72,146.92c0,20.59,16.63,37.42,37.42,37.42s37.22-16.83,37.22-37.42-16.63-37.42-37.22-37.42-37.42,16.83-37.42,37.42"/> -->
  <path fill="#ffffff" class="cls-1" d="M198,0c109.35,0,198,88.65,198,198s-88.65,198-198,198c-91.08,0-167.31-60.98-190.87-143.95l75.83,31.28c5.36,26.15,28.35,44.93,55.04,44.95,30.89,0,56.03-25.15,56.03-56.03v-2.57l67.32-48.11h1.58c41.18,0,74.65-33.46,74.65-74.65s-33.46-74.65-74.65-74.65-74.84,33.46-74.84,74.65v.99l-46.93,68.51-3.17-.2c-11.68,0-22.57,3.56-31.48,9.7L0,182.16C8.51,80.19,93.65,0,198,0M124.34,300.37c15.84,6.53,34.06-.79,40.59-16.63,6.53-15.84-.99-33.86-16.43-40.39l-25.34-10.49c9.7-3.56,20.59-3.76,30.89.59,10.49,4.16,18.61,12.28,22.77,22.77,4.36,10.3,4.36,21.78,0,32.08-8.51,21.38-33.66,31.68-55.04,22.77-9.9-4.16-17.42-11.68-21.58-20.59l24.16,9.9ZM312.84,146.92c0,27.52-22.37,49.9-49.9,49.9-27.48-.11-49.7-22.42-49.7-49.9-.11-27.34,21.96-49.59,49.3-49.7.13,0,.26,0,.4,0,27.48,0,49.79,22.22,49.9,49.7M225.72,146.92c0,20.59,16.63,37.42,37.42,37.42s37.22-16.83,37.22-37.42-16.63-37.42-37.22-37.42-37.42,16.83-37.42,37.42"/>
  <path stroke-miterlimit="10" stroke="#000" fill="#4bb749" d="M226.27,438.56c-5.95,0-11.05-2.12-15.28-6.35-4.24-4.24-6.36-9.33-6.36-15.29v-108.22c0-5.95,2.12-11.05,6.36-15.28s9.34-6.36,15.28-6.36h108.22c5.95,0,11.05,2.12,15.29,6.36,4.24,4.24,6.36,9.34,6.35,15.28v108.22c0,5.95-2.12,11.05-6.35,15.29-4.24,4.24-9.33,6.36-15.29,6.35h-108.22ZM388.6,351.98c-3.07,0-5.63-1.04-7.71-3.12-2.07-2.08-3.11-4.65-3.12-7.71v-43.29c0-3.07,1.04-5.63,3.12-7.71,2.08-2.07,4.65-3.11,7.71-3.12h43.29c3.07,0,5.64,1.04,7.72,3.12,2.08,2.08,3.11,4.65,3.11,7.71v43.29c0,3.07-1.04,5.64-3.12,7.72-2.08,2.08-4.65,3.11-7.71,3.11h-43.29ZM399.43,330.34h21.64v-21.64h-21.64v21.64ZM226.27,416.92h108.22v-108.22h-108.22v108.22ZM237.09,395.27h86.58l-28.41-37.88-20.29,27.06-14.88-19.75-23,30.57ZM388.6,438.56c-3.07,0-5.63-1.04-7.71-3.12-2.07-2.08-3.11-4.65-3.12-7.71v-43.29c0-3.07,1.04-5.63,3.12-7.71,2.08-2.07,4.65-3.11,7.71-3.12h43.29c3.07,0,5.64,1.04,7.72,3.12,2.08,2.08,3.11,4.65,3.11,7.71v43.29c0,3.07-1.04,5.64-3.12,7.72-2.08,2.08-4.65,3.11-7.71,3.11h-43.29ZM399.43,416.92h21.64v-21.64h-21.64v21.64ZM226.27,416.92v-108.22,108.22ZM399.43,330.34v-21.64,21.64ZM399.43,416.92v-21.64,21.64Z"/>
</svg>